<svg xmlns="http://www.w3.org/2000/svg" width="221" height="248" viewBox="0 0 221 248"><defs><style>
      .cls-1 {
        fill: #060606;
        fill-rule: evenodd;
      }
    </style></defs><path id="Color_Fill_2" data-name="Color Fill 2" class="cls-1" d="M213.4,128.7c-1.388,7.127-3.145,13.681-6.3,19.1-7.6,13.068-18.043,21.686-34.284,26.1-8.071,2.193-18.7,1.8-28.987,1.8H69.569c-5.545,0-11.513.388-16.393-.5A77.42,77.42,0,0,1,35.384,170C15.457,161.231-1.067,134.937,7.9,106.3A58.765,58.765,0,0,1,20.691,84.4c5.544-6.085,16.751-11.651,26.088-14l8.2-1.4,4.5-.3H132.54c13.5,0,29.275-1.177,40.182,1.8,15.3,4.176,25.708,11.98,33.085,24.1C210.5,102.309,215.872,116.032,213.4,128.7ZM176.62,63.2c-0.938-6.9-5.727-15.25-8.9-20.3C158.511,28.219,145,17.767,126.243,12.6c-6.609-1.821-16.662-3.112-24.789-1.6A102.836,102.836,0,0,0,89.36,13.7,70.526,70.526,0,0,0,42.681,63.6l-7.7-2,1.5-5.1a77.609,77.609,0,0,1,6-13.6C52.251,26.287,65.2,14.421,84.162,7c4.658-1.822,9.791-2.736,15.193-3.8l8.2-.7c31.687-.55,54.3,16.067,66.37,35.2a95.256,95.256,0,0,1,8.4,16.9c0.683,1.765,2.092,4.682,2,6.6ZM57.974,184.7c0.462,5.965,4.163,14.33,6.5,18.9,7.118,13.939,16.676,24.958,31.786,30.9,5.9,2.32,15.307,4.186,23.39,2.4a55.917,55.917,0,0,0,9.995-3c15.516-6.661,26.159-20.228,32.486-36.1,1.616-4.054,2.393-8.368,3.8-12.8h0.1l7.7,1.7v0.1c-4.849,23.9-19.7,45.075-39.682,53.8-8.1,3.538-20.4,6.6-31.985,4a67.48,67.48,0,0,1-12.495-4.1c-19.894-8.751-34.373-30.447-39.482-54.2l7.3-1.6h0.6Z"></path></svg>